<svg width="46" height="46" viewBox="0 0 46 46" fill="none" xmlns="http://www.w3.org/2000/svg">
  <defs>
    <linearGradient id="bg_grad" x1="0" y1="0" x2="46" y2="46" gradientUnits="userSpaceOnUse">
      <stop stop-color="#6C3AED"/>
      <stop offset="0.5" stop-color="#8B5CF6"/>
      <stop offset="1" stop-color="#3B82F6"/>
    </linearGradient>
    <linearGradient id="glow" x1="10" y1="8" x2="36" y2="38" gradientUnits="userSpaceOnUse">
      <stop stop-color="#E0D4FF" stop-opacity="0.3"/>
      <stop offset="1" stop-color="#818CF8" stop-opacity="0"/>
    </linearGradient>
  </defs>
  <!-- Background -->
  <rect width="46" height="46" rx="12" fill="url(#bg_grad)"/>
  <rect x="1" y="1" width="44" height="44" rx="11" fill="url(#glow)"/>
  
  <!-- Chat bubble body -->
  <path d="M10 16C10 13.2386 12.2386 11 15 11H31C33.7614 11 36 13.2386 36 16V26C36 28.7614 33.7614 31 31 31H27L23 36L19 31H15C12.2386 31 10 28.7614 10 26V16Z" fill="white" fill-opacity="0.95"/>
  
  <!-- Brain circuit pattern inside bubble -->
  <!-- Central node -->
  <circle cx="23" cy="20" r="2.5" fill="url(#bg_grad)"/>
  
  <!-- Left node -->
  <circle cx="16" cy="18" r="1.8" fill="url(#bg_grad)"/>
  <!-- Right node -->
  <circle cx="30" cy="18" r="1.8" fill="url(#bg_grad)"/>
  <!-- Bottom left node -->
  <circle cx="17.5" cy="25" r="1.5" fill="url(#bg_grad)"/>
  <!-- Bottom right node -->
  <circle cx="28.5" cy="25" r="1.5" fill="url(#bg_grad)"/>
  
  <!-- Connections -->
  <line x1="18" y1="18" x2="20.5" y2="19.5" stroke="url(#bg_grad)" stroke-width="1.2" stroke-linecap="round"/>
  <line x1="25.5" y1="19.5" x2="28" y2="18" stroke="url(#bg_grad)" stroke-width="1.2" stroke-linecap="round"/>
  <line x1="22" y1="22" x2="19" y2="24" stroke="url(#bg_grad)" stroke-width="1.2" stroke-linecap="round"/>
  <line x1="24" y1="22" x2="27" y2="24" stroke="url(#bg_grad)" stroke-width="1.2" stroke-linecap="round"/>
  <line x1="16.5" y1="19.8" x2="17" y2="23.5" stroke="url(#bg_grad)" stroke-width="1" stroke-linecap="round"/>
  <line x1="29.5" y1="19.8" x2="29" y2="23.5" stroke="url(#bg_grad)" stroke-width="1" stroke-linecap="round"/>
  
  <!-- Sparkle accents -->
  <path d="M37 9C37.06 8.78 37.38 8.78 37.44 9L37.76 10.18C37.78 10.26 37.84 10.32 37.92 10.34L39.1 10.66C39.32 10.72 39.32 11.04 39.1 11.1L37.92 11.42C37.84 11.44 37.78 11.5 37.76 11.58L37.44 12.76C37.38 12.98 37.06 12.98 37 12.76L36.68 11.58C36.66 11.5 36.6 11.44 36.52 11.42L35.34 11.1C35.12 11.04 35.12 10.72 35.34 10.66L36.52 10.34C36.6 10.32 36.66 10.26 36.68 10.18L37 9Z" fill="white" fill-opacity="0.8"/>
  <path d="M8.5 32C8.56 31.78 8.88 31.78 8.94 32L9.18 32.88C9.2 32.96 9.26 33.02 9.34 33.04L10.22 33.28C10.44 33.34 10.44 33.66 10.22 33.72L9.34 33.96C9.26 33.98 9.2 34.04 9.18 34.12L8.94 35C8.88 35.22 8.56 35.22 8.5 35L8.26 34.12C8.24 34.04 8.18 33.98 8.1 33.96L7.22 33.72C7 33.66 7 33.34 7.22 33.28L8.1 33.04C8.18 33.02 8.24 32.96 8.26 32.88L8.5 32Z" fill="white" fill-opacity="0.6"/>
</svg>
